HIERARCHY
ROOT RightShoulder
{
	OFFSET -1.644901 -0.003980 3.801207
	CHANNELS 6 Xposition Yposition Zposition Xrotation Yrotation Zrotation
	JOINT RightElbow
	{
		OFFSET -2.454748 0.000000 0.000000
		CHANNELS 3 Xrotation Yrotation Zrotation
		JOINT RightWrist
		{
			OFFSET -2.035185 -0.001238 0.000000
			CHANNELS 3 Xrotation Yrotation Zrotation
			End Site
			{
				OFFSET -1.535909 0.000000 0.000000
			}
		}
	}
}
MOTION
Frames: 47
Frame Time: 0.050000
-1.644901 -0.003980 3.801207 -17.282795 154.537825 -32.225290 -42.943838 -7.315854 13.907678 -17.282805 154.537838 -32.225283 
-1.644901 -0.003980 3.801207 -13.469276 150.331876 -34.518021 -41.111083 -13.482338 20.467666 -13.469279 150.331876 -34.518021 
-1.644901 -0.003980 3.801207 -9.294793 146.350286 -37.187324 -36.262342 -20.826971 28.804106 -9.294781 146.350272 -37.187327 
-1.644901 -0.003980 3.801207 -4.706326 142.622532 -40.279115 -29.254680 -29.988676 38.548703 -4.706314 142.622519 -40.279121 
-1.644901 -0.003980 3.801207 0.348652 139.183437 -43.839784 -20.002472 -35.592959 50.499588 0.348654 139.183437 -43.839784 
-1.644901 -0.003980 3.801207 5.916523 136.073242 -47.910335 -10.970932 -37.306876 62.435886 5.916521 136.073242 -47.910338 
-1.644901 -0.003980 3.801207 12.028580 133.336959 -52.517266 -3.135107 -35.930449 72.645551 12.028576 133.336959 -52.517270 
-1.644901 -0.003980 3.801207 18.688559 131.022235 -57.660006 3.660093 -34.384928 80.645970 18.688557 131.022235 -57.660006 
-1.644901 -0.003980 3.801207 25.858763 129.175611 -63.296941 9.888943 -33.104759 85.950315 25.858763 129.175611 -63.296941 
-1.644901 -0.003980 3.801207 33.449082 127.836566 -69.334357 15.613601 -31.687563 89.188132 33.449089 127.836553 -69.334370 
-1.644901 -0.003980 3.801207 41.315657 127.030700 -75.625077 21.026341 -30.411831 92.323769 41.315664 127.030700 -75.625077 
-1.644901 -0.003980 3.801207 49.274617 126.763653 -81.982084 25.201146 -29.536822 94.093622 49.274621 126.763653 -81.982084 
-1.644901 -0.003980 3.801207 57.129741 127.018091 -88.206217 29.587041 -29.141774 95.476298 57.129751 127.018091 -88.206217 
-1.644901 -0.003980 3.801207 64.704732 127.755342 -94.118368 31.256185 -28.153160 95.371106 64.704711 127.755342 -94.118354 
-1.644901 -0.003980 3.801207 71.868056 128.920941 -99.584329 33.386962 -27.763636 94.575744 71.868056 128.920941 -99.584336 
-1.644901 -0.003980 3.801207 78.542674 130.452119 -104.524495 36.606990 -27.107598 94.197919 78.542681 130.452119 -104.524495 
-1.644901 -0.003980 3.801207 84.701634 132.284809 -108.909402 39.037810 -26.859649 94.301908 84.701634 132.284809 -108.909402 
-1.644901 -0.003980 3.801207 90.355767 134.358673 -112.747497 40.683059 -26.119589 94.571182 90.355773 134.358673 -112.747504 
-1.644901 -0.003980 3.801207 95.539826 136.619862 -116.071169 43.139577 -25.729852 94.196478 95.539826 136.619862 -116.071169 
-1.644901 -0.003980 3.801207 100.300741 139.022135 -118.925123 45.429535 -24.900262 93.750931 100.300741 139.022135 -118.925123 
-1.644901 -0.003980 3.801207 104.689458 141.526629 -121.358091 47.363793 -24.386647 92.960480 104.689444 141.526615 -121.358091 
-1.644901 -0.003980 3.801207 108.755845 144.101145 -123.417857 48.798420 -23.754922 92.408751 108.755839 144.101145 -123.417857 
-1.644901 -0.003980 3.801207 112.546102 146.719225 -125.148545 50.299767 -23.824963 91.673488 112.546088 146.719239 -125.148545 
-1.644901 -0.003980 3.801207 116.101495 149.359162 -126.589510 51.458054 -23.698233 90.969602 116.101495 149.359162 -126.589524 
-1.644901 -0.003980 3.801207 119.458205 152.003114 -127.775081 52.551530 -23.764491 90.325133 119.458205 152.003114 -127.775095 
-1.644901 -0.003980 3.801207 122.647549 154.636398 -128.734859 53.080924 -24.065547 89.480894 122.647549 154.636398 -128.734859 
-1.644901 -0.003980 3.801207 125.696381 157.246842 -129.494103 54.361943 -24.841319 88.663123 125.696381 157.246842 -129.494103 
-1.644901 -0.003980 3.801207 128.627693 159.824337 -130.074368 55.282872 -25.572904 87.956683 128.627693 159.824323 -130.074368 
-1.644901 -0.003980 3.801207 131.461088 162.360413 -130.494002 55.947739 -25.477820 87.787028 131.461088 162.360413 -130.493988 
-1.644901 -0.003980 3.801207 134.213245 164.847954 -130.768644 54.441560 -24.113358 88.175912 134.213245 164.847954 -130.768644 
-1.644901 -0.003980 3.801207 136.898383 167.280936 -130.911709 55.057588 -23.876313 88.033987 136.898383 167.280936 -130.911722 
-1.644901 -0.003980 3.801207 139.528593 169.654249 -130.934713 54.834207 -23.183776 88.417857 139.528580 169.654249 -130.934713 
-1.644901 -0.003980 3.801207 142.114093 171.963550 -130.847628 54.332632 -22.392324 88.460369 142.114093 171.963550 -130.847628 
-1.644901 -0.003980 3.801207 144.663543 174.205122 -130.659169 54.096741 -22.456166 88.473332 144.663543 174.205122 -130.659169 
-1.644901 -0.003980 3.801207 147.184211 176.375825 -130.377055 54.082415 -22.741374 88.238128 147.184211 176.375825 -130.377041 
-1.644901 -0.003980 3.801207 149.682107 178.472952 -130.008129 53.831887 -23.125417 87.726116 149.682107 178.472952 -130.008143 
-1.644901 -0.003980 3.801207 152.162203 180.494306 -129.558648 54.533374 -23.549937 87.360210 152.162203 180.494306 -129.558648 
-1.644901 -0.003980 3.801207 154.628475 182.437986 -129.034295 54.896781 -23.317011 86.765573 154.628475 182.437973 -129.034295 
-1.644901 -0.003980 3.801207 157.084024 184.302491 -128.440396 55.259167 -23.377004 86.337730 157.084024 184.302491 -128.440396 
-1.644901 -0.003980 3.801207 159.531144 186.086673 -127.781993 55.825691 -23.630431 85.957897 159.531144 186.086673 -127.781979 
-1.644901 -0.003980 3.801207 161.971407 187.789685 -127.063867 56.651918 -24.052532 85.563446 161.971407 187.789685 -127.063867 
-1.644901 -0.003980 3.801207 164.405672 189.410954 -126.290758 57.916862 -25.069953 85.457032 164.405672 189.410967 -126.290758 
-1.644901 -0.003980 3.801207 166.834228 190.950260 -125.467228 58.793736 -26.827597 84.966816 166.834228 190.950274 -125.467228 
-1.644901 -0.003980 3.801207 169.256746 192.407645 -124.597854 59.544216 -29.278999 84.629397 169.256746 192.407631 -124.597854 
-1.644901 -0.003980 3.801207 171.672392 193.783409 -123.687185 59.992762 -30.706734 84.607835 171.672392 193.783395 -123.687185 
-1.644901 -0.003980 3.801207 174.079843 195.078167 -122.739770 60.873132 -31.959541 84.912113 174.079843 195.078167 -122.739783 
-1.644901 -0.003980 3.801207 176.477335 196.292820 -121.760170 61.158975 -31.741405 85.300894 176.477349 196.292834 -121.760170 
